<svg version="1.0" xmlns="http://www.w3.org/2000/svg" width="682.667" height="682.667" viewBox="0 0 512 512"><path d="M157.5 33.1c-23.1 3.1-48.2 13.2-67 27.1-9 6.6-23.6 21.3-30.2 30.2C45.8 110.1 36.1 134.5 33 159c-1.4 11.5-1.4 182.5 0 194 4.9 39.3 25.2 74.2 56.9 98.1 16.8 12.6 35.7 21.1 57.9 26.2 9.6 2.2 10.3 2.2 107.7 2.2 90.1 0 98.7-.1 106.8-1.8 58.3-11.9 101.2-54 114.9-113 2.1-9 2.2-11.4 2.6-101.2.4-97.8.1-105.4-4.3-122.6-6.7-26.4-18.9-47.5-39-67.5-19.6-19.5-42.9-32-72-38.7-8.7-2-11.7-2.1-104.5-2.3-53.4-.1-98.6.2-102.5.7zM353 65.5c23.5 3.5 44.9 14.4 62 31.5 17.5 17.6 28.4 39.5 32 64.5 1.3 9.4 1.3 179.6 0 189-3.6 25-14.5 46.9-32 64.5-17.6 17.5-39.5 28.4-64.5 32-9.4 1.3-179.6 1.3-189 0-25-3.6-47.1-14.6-65-32.5-16.6-16.7-27.5-38.2-31-61.5-2.2-14-2.2-180 0-194 7.2-47.4 45.4-86 92.5-93.5 12.9-2 181.6-2.1 195 0z"/><path d="M233.5 145.4c-9.4 4.1-12.4 16.8-5.8 24.7 4.9 5.8 5.6 5.9 47.5 5.9h38.3l-84.2 84.2c-91.4 91.6-86.6 86.1-84.8 95.5.9 4.9 6.9 10.9 11.8 11.8 9.4 1.8 3.9 6.6 95.4-84.8l84.2-84.1.3 39.6c.3 38.3.4 39.8 2.4 42.4 3.9 5.3 7.1 6.9 13.4 6.9 6.3 0 9.5-1.6 13.4-6.9 2.1-2.7 2.1-3.7 2.1-64.6 0-60.9 0-61.9-2.1-64.6-1.1-1.5-3.3-3.7-4.8-4.8-2.7-2.1-3.9-2.1-63.4-2.3-48.9-.2-61.3 0-63.7 1.1z"/></svg>