<svg version="1.0" xmlns="http://www.w3.org/2000/svg" width="546.667" height="548" viewBox="0 0 410 411">
<path fill="#072b63" d="M37 12.9c-9.9 1.5-18.5 7.9-22.7 16.8-1.7 3.6-1.8 13.3-1.8 177.3v173.5l2.3 4.2c2.8 5.4 8.1 10.7 13.2 13.3 3.9 2 5.7 2 175.3 2 190.2 0 174.7.6 182.8-6.7 2.2-2 5.3-6 6.7-8.7l2.7-5.1v-345l-2.6-5.6c-3-6.2-8-11.1-14.8-14.2l-4.6-2.2-166-.1c-91.3-.1-168 .1-170.5.5zm152.5 41.3 3.5 2.3v58.3l26.8 22.4c14.7 12.3 27.6 23.1 28.7 24 1.1.9 6.7 5.6 12.4 10.3 5.7 4.8 10.7 8.3 11 7.7.3-.5 3.8-2.8 7.6-5.1 3.9-2.4 9.7-6 13-8.1 11.8-7.6 17.7-11 18.9-11 .6 0 2.6 1.2 4.4 2.7l3.2 2.8v90.2c0 1-10.5 1.3-49 1.3h-49v-19.8c0-17.7.2-20.1 1.8-21.4.9-.8 9.9-6.8 20-13.3 10-6.4 18.4-12.1 18.7-12.5.2-.4-9.3-8.8-21.2-18.6-11.9-9.8-22.1-18.4-22.7-18.9-.6-.6-6.3-5.3-12.6-10.5s-12.1-10.1-12.9-10.8c-.8-.7-4.4-3.7-8-6.7-3.6-2.9-13.1-10.7-21.1-17.4-8-6.6-15-12.1-15.5-12.1-.8 0-1.2 25.1-1.4 80.2-.1 44.1-.4 80.5-.7 81-.3.4-11.1.8-24 .8H98V108.5l4.8-3c2.6-1.6 16.6-10.6 31.2-20 14.6-9.5 31.5-20.4 37.5-24.3 6.1-3.9 11.5-7.5 12-8.1 1.5-1.5 2.2-1.3 6 1.1zm-96 244c2.7 1.5 3.5 2.8 3.5 6 0 1.8-.6 2.9-2 3.3-1 .3-11.1.6-22.2.5-11.2-.1-21.3-.1-22.5-.1-2.3.1-2.3.3-2.3 14 0 11.3.3 14 1.5 14.5.8.3 11.3.5 23.2.5 12 0 22.4.1 23.1.1 1.7 0 1.5 5.6-.4 7.4-1.3 1.4-5.3 1.6-27.9 1.6-26.1 0-26.4 0-27.9-2.2-1.3-1.9-1.6-5.7-1.6-22.1 0-26.8-2.7-24.5 29.1-24.5 15.4 0 25.1.4 26.4 1zm68.5.3c1.6.9 3.2 2.6 3.5 3.8.4 1.3.5 10.9.3 21.5-.3 17.7-.4 19.2-2.3 20.6-1.7 1.3-6.4 1.5-27.6 1.6-18.9 0-26-.3-27.2-1.3-1.6-1.1-1.8-3.6-1.8-22.5 0-11.6.3-21.7.6-22.3 1.5-2.3 5.9-2.8 28.3-2.8 19-.1 23.8.2 26.2 1.4zm68.2.1c3.6 1.8 3.9 3.6 3.6 16.9l-.3 11-24.2.3-24.3.2v4.5c0 3.8.3 4.5 2.3 5 1.2.3 12 .5 23.9.3 22.6-.3 22.8-.3 22.8 3.8 0 .8-.9 2.3-2 3.4-1.9 1.9-3.3 2-27.8 2-19.1 0-26.3-.3-27.5-1.3-1.6-1.1-1.7-3.4-1.5-23.2l.3-21.9 2.5-1.3c3.8-1.9 48.5-1.6 52.2.3zm67.1-.7c3.2 1.2 5.1 4.6 4.3 7.7l-.6 2.3-22.9-.1c-12.6 0-23.4.3-24 .6-1.2.8-1.5 4.5-.5 7 .5 1.4 3.5 1.6 23 1.6 27 0 25.4-.9 25.4 14.7 0 15.2 1.9 14.3-29.7 14.3-28.2 0-29.3-.2-29.3-6.1V337l23.8-.2 23.7-.3.3-4.8.3-4.7h-21.8c-27.9 0-26.3.9-26.3-14.5 0-16-1.6-15.2 28.4-15.4 13-.1 24.5.3 25.9.8zm70.6 1.5c2.1 1.9 2.1 2.6 1.9 24l-.3 22.1-4.7.3c-5.4.3-5 1.3-5.2-10.8l-.1-7.5h-38l-.5 9-.5 9-4.7.3-4.8.3v-45l2.5-1.9c2.4-1.9 4-2 27.4-1.9 23 .2 25.1.3 27 2.1z"/><path fill="#072b63" d="M175.7 69.5c-3.7 2.5-7 4.5-7.3 4.5-.4 0-2.8 1.6-5.4 3.5-2.6 1.9-5.3 3.5-5.9 3.5-1.4 0-1.4 1.3.1 2.8 2 2 4.1 1.4 8.3-2.6 2.2-2 7.3-6.5 11.3-10 4-3.4 7-6.2 6.5-6.2-.4.1-3.8 2.1-7.6 4.5zM120.2 104c-11.7 7.7-15.4 9.2-16.7 7-1.1-1.7-2.6 0-1.6 1.8.5.9 1.2 19.5 1.6 41.2.4 21.7.9 40.6 1 42 .2 1.4.4 6.5.4 11.4.2 20.7 1 5 2.1-40.4.7-26.7 1.5-49 1.9-49.6.3-.7 5.6-5.1 11.6-9.9 12.7-10.1 14.3-11.5 13-11.5-.6 0-6.5 3.6-13.3 8zM277.4 188.1c-7.1 4.5-14.1 9-15.6 10-1.5 1.1-2.9 1.9-3.2 1.9-.3 0-6.2 3.7-13.2 8.2-12.5 7.9-12.9 8.1-16.6 7.1-4.4-1.2-4.5-.9-1.8 3.2 1.6 2.5 2 4.8 2.1 13 0 7.8.3 9.4 1 7.5.6-1.4 1.3-5.8 1.6-9.7.4-4.9 1.1-7.7 2.2-8.7 1.6-1.4 4.4-3.3 29.6-20.4 11.5-7.8 25.5-17.5 27.4-18.9.2-.2.2-.5-.1-.8-.3-.3-6.3 3.1-13.4 7.6zM128.5 308l-12 .5-.3 13.7c-.3 13.6-.2 13.8 2 14.3 1.3.3 10 .4 19.3.3l17-.3.3-14.3c.2-10.9 0-14.2-1-14.3-4.2-.4-14.9-.3-25.3.1zM185.8 308.1c-.5.3-.8 2.4-.6 4.5l.3 3.9 18.3.3 18.2.2.9-2.4c1-2.5.9-5.1-.2-6.2-.9-.9-35.5-1.1-36.9-.3zM322.6 307.8c-1.3.3-1.6 1.2-1.4 4.5l.3 4.2 17.9.3c12.3.2 18.3-.1 19.2-.9 1.9-1.5 1.8-6.8-.1-7.5-1.6-.6-33-1.1-35.9-.6z"/></svg>