<svg version="1.0" xmlns="http://www.w3.org/2000/svg" width="682.667" height="682.667" viewBox="0 0 512 512"><path d="M225.8 12.4c-16.4 6.7-30.1 12.5-30.4 12.9-.7.6 9.3 26.4 10.5 27.1.3.2 8.2-2.7 17.5-6.5s17.1-6.9 17.2-6.9c.2 0 .4 46.9.4 104.2l-.1 104.3-65.7 37.9c-36.1 20.9-66.2 37.9-66.8 37.9-.6 0-10.8-5.6-22.7-12.4l-21.6-12.4-.1-35.3V228H34l.2 78 .3 78.1 110.8 64L256 512l65.3-37.6c35.8-20.8 72.4-41.9 81.2-46.9 8.8-5.1 29.3-16.9 45.5-26.3l29.5-17 .2-140.9.3-140.8L414.2 73c-35-16.2-70.7-32.6-79.2-36.6C270.1 6.2 256.5 0 256.1.1c-.3 0-14 5.6-30.3 12.3zm134.7 68.9 87 40.3.2 88.5.3 88.4-19.2 11c-10.5 6-19.5 11.1-19.9 11.3-.5.2-.9-26.8-.9-60v-60.3l-49.1-25c-27-13.8-49.7-25.1-50.5-25.3-1.2-.3-1.4 8.3-1.6 58.6l-.3 59-17.7-10.2-17.7-10.1-.1-103.7c0-82.6.3-103.6 1.3-103.3.6.3 40.4 18.7 88.2 40.8zm-2.1 127.8 19.6 10.1v44.5c0 36.1-.2 44.4-1.3 44.1-.7-.2-9.9-5.3-20.5-11.3l-19.2-11v-43.3c0-25.4.4-43.2.9-43.2s9.7 4.5 20.5 10.1zm-44.6 97.5c31.2 18 57.3 33.2 58 33.9 1 .9-10.8 8.1-57.3 34.9L256 409.2l-58.5-33.8c-32.2-18.6-58.2-34.1-57.8-34.5.5-.4 22.4-13.2 48.8-28.5 26.4-15.2 52.1-30.1 57-33 5-2.9 9.6-5.3 10.3-5.4.7 0 26.8 14.7 58 32.6zm-159 78.9 86.2 49.8v16.4c0 10.2-.4 16.3-1 16.1-.5-.2-40.3-23-88.5-50.8L64 366.5v-33.7l2.3 1.4c1.2.8 41 23.9 88.5 51.3zM448 349.7v16.8l-88 50.7c-48.3 28-88.2 50.8-88.5 50.8-.3 0-.5-7.4-.5-16.4v-16.3l88.3-51.1c48.5-28.1 88.3-51.1 88.5-51.1.1-.1.2 7.4.2 16.6z"/><path d="M142.3 48.8c-11.6 4.8-21.4 9-21.7 9.3-.4.3 1.9 6.7 5 14.1l5.6 13.6 22.1-9c12.2-4.9 22.4-9.2 22.6-9.4.8-.8-10.3-27.4-11.4-27.3-.5 0-10.5 3.9-22.2 8.7zM64.6 81c-12 4.9-22 9.1-22.2 9.3-.4.4 9.5 25.7 10.5 26.9.6.7 43.5-16.2 44.9-17.6C98.4 99 87.8 72 87 72c-.3.1-10.3 4.1-22.4 9zM35 169.5V194h30v-49H35v24.5z"/></svg>