<svg id="Layer_1" enable-background="new 0 0 511.958 511.958" height="512" viewBox="0 0 511.958 511.958" width="512" xmlns="http://www.w3.org/2000/svg"><g><path d="m497.672 165.689c-10.999-6.047-27.757-4.829-38.55 12.138-.032.051-.064.102-.096.153l-40.124 65.667c-4.833-2.786-10.372-4.023-16.014-3.517-7.068.633-13.428 3.95-17.907 9.34-5.429 6.523-38.768 48.427-44.44 55.26-9.522 11.461-21.667 20.274-34.526 29.604-18.245 13.238-38.197 27.717-50.036 51.332-19.282-38.784-58.92-51.002-84.562-80.936-5.676-6.838-39.006-48.733-44.439-55.26-4.479-5.39-10.838-8.707-17.907-9.34-5.64-.504-11.181.732-16.014 3.517l-40.124-65.667c-.031-.052-.063-.103-.096-.154-10.792-16.965-27.549-18.186-38.55-12.138-13.035 7.165-17.898 23.154-11.313 37.192.015.032.03.063.045.095 14.166 31.648 37.939 90.985 54.132 126.102 15.226 33.493 22.055 42.904 48.714 67.136l35.965 32.691v3.053h-5.849c-5.523 0-10 4.477-10 10v60c0 5.523 4.477 10 10 10h240c5.523 0 10-4.477 10-10v-60c0-5.523-4.477-10-10-10h-5.849v-3.053l35.965-32.691c26.659-24.231 33.488-33.643 48.714-67.136 11.687-25.708 25.479-58.614 36.561-85.055 7.92-18.896 14.759-35.215 17.57-41.047.015-.032.03-.063.045-.095 6.583-14.037 1.719-30.026-11.315-37.191zm-339.117 251.392-39.239-35.667c-24.56-22.323-29.901-29.688-43.959-60.613-11.563-25.437-25.292-58.19-36.322-84.508-8.336-19.889-14.925-35.609-17.973-41.946-2.794-6.007.479-9.821 2.859-11.13 3.993-2.191 8.472-.222 11.997 5.275l44.602 72.996c-.819 5.353-.146 12.002 3.104 20.217 9.334 23.587 20.904 47.147 31.742 64.638 2.909 4.695 9.074 6.141 13.768 3.233 4.694-2.909 6.142-9.073 3.233-13.768-10.242-16.528-21.229-38.93-30.146-61.463-3.811-9.631-1.28-11.759-.327-12.56 1.537-1.292 3.454-1.904 5.395-1.734 1.726.155 3.256.937 4.307 2.202 5.662 6.819 38.992 48.715 44.439 55.259 31.308 37.961 84.768 48.07 89.945 105.376v9.07h-84.15v-7.478c-.002-2.817-1.19-5.504-3.275-7.399zm-12.576 34.877h100v40h-100zm220 40h-100v-40h100zm124.915-297.605c-14.078 31.316-38.172 91.511-54.292 126.447-14.058 30.926-19.4 38.29-43.959 60.613l-39.239 35.667c-2.085 1.896-3.274 4.582-3.274 7.4v7.478h-84.151v-9.07c5.175-57.302 58.641-67.418 89.946-105.376 5.444-6.541 38.781-48.444 44.439-55.26 1.051-1.265 2.581-2.046 4.307-2.201 1.945-.174 3.858.442 5.395 1.734.953.801 3.484 2.928-.327 12.559-8.917 22.533-19.905 44.936-30.146 61.463-2.909 4.694-1.461 10.858 3.233 13.768 4.693 2.909 10.858 1.461 13.768-3.233 10.838-17.491 22.408-41.051 31.742-64.638 3.251-8.215 3.923-14.864 3.104-20.217l44.601-72.995c3.524-5.499 8.006-7.472 11.997-5.276 2.382 1.309 5.657 5.125 2.856 11.137z"/><path d="m230.916 317.417h50.125c14.727 0 26.708-11.982 26.708-26.708l.001-194.726c0-1.513-.343-3.007-1.004-4.368l-41.772-86.027c-3.524-7.453-14.469-7.45-17.991 0l-41.77 86.027c-.661 1.361-1.004 2.854-1.004 4.368v194.725c0 14.728 11.981 26.709 26.707 26.709zm6.318-245.96c12.161 3.724 25.328 3.724 37.49 0l10.616 21.863-3.236-1.99c-3.213-1.977-7.265-1.976-10.478 0l-15.646 9.623-15.646-9.623c-3.214-1.977-7.265-1.976-10.478 0l-3.236 1.99zm-2.14 40.13 10.885 6.695v94.134h-21.77v-94.135zm52.655 100.829h-21.77v-94.134l10.885-6.695 10.885 6.695zm-63.54 20h63.54v15h-63.54zm56.831 65.001h-50.124c-3.636 0-6.708-3.072-6.708-6.708v-23.292h63.54v23.293c.001 3.635-3.071 6.706-6.708 6.707zm-25.061-264.565 9.852 20.29c-6.475 1.486-13.229 1.486-19.704 0z"/></g></svg>